<svg xmlns="http://www.w3.org/2000/svg" width="40" height="40" viewBox="0 0 40 40">
  <g id="icon3" transform="translate(-488 -1164)">
    <circle id="타원_1339" data-name="타원 1339" cx="20" cy="20" r="20" transform="translate(488 1164)" fill="#1c1c1c"/>
    <g id="atom_2_" data-name="atom (2)" transform="translate(495.326 1171.441)">
      <g id="그룹_97038" data-name="그룹 97038" transform="translate(0.564)">
        <path id="패스_87840" data-name="패스 87840" d="M21.371,12.559c1.975-2.015,3.172-3.961,3.377-5.493a2.64,2.64,0,0,0-.6-2.219,3.956,3.956,0,0,0-3.069-1.064,13.585,13.585,0,0,0-3.81.646C16.15,1.612,14.481,0,12.673,0S9.2,1.612,8.079,4.43a13.594,13.594,0,0,0-3.81-.646A3.961,3.961,0,0,0,1.2,4.848,2.64,2.64,0,0,0,.6,7.066C.8,8.6,2,10.543,3.976,12.559,2,14.575.8,16.521.6,18.052a2.633,2.633,0,0,0,.6,2.219,3.958,3.958,0,0,0,3.07,1.065,13.553,13.553,0,0,0,3.81-.648c1.119,2.819,2.787,4.431,4.594,4.431s3.476-1.613,4.595-4.431a13.616,13.616,0,0,0,3.81.648,3.959,3.959,0,0,0,3.069-1.064,2.64,2.64,0,0,0,.6-2.22C24.543,16.521,23.346,14.576,21.371,12.559Zm-2.942-.736c.288.244.567.491.834.736-.266.246-.546.491-.834.736.008-.244.012-.488.012-.736S18.436,12.067,18.429,11.824ZM23.058,7.1c-.164,1.217-1.188,2.839-2.89,4.58-.57-.526-1.189-1.049-1.843-1.56a21.13,21.13,0,0,0-.807-4.237c2.581-.77,4.565-.734,5.26.037A1.4,1.4,0,0,1,23.058,7.1ZM18.326,15c.653-.511,1.273-1.034,1.843-1.56,1.7,1.741,2.726,3.363,2.89,4.58a1.4,1.4,0,0,1-.281,1.18c-.693.772-2.677.807-5.259.038A21.127,21.127,0,0,0,18.326,15ZM16.9,16.051a19.686,19.686,0,0,1-.606,2.769c-.738-.27-1.5-.591-2.273-.957.789-.445,1.5-.876,2.149-1.31C16.423,16.386,16.664,16.219,16.9,16.051Zm-4.23,7.4c-1.186,0-2.353-1.256-3.219-3.453a28.423,28.423,0,0,0,3.219-1.4A28.488,28.488,0,0,0,15.893,20C15.026,22.194,13.859,23.45,12.673,23.45Zm-3.5-6.9c.65.432,1.356.863,2.149,1.31-.773.366-1.535.688-2.273.957a19.475,19.475,0,0,1-.606-2.769Q8.8,16.3,9.173,16.551Zm-.73-7.482A19.673,19.673,0,0,1,9.049,6.3c.74.27,1.5.592,2.274.957-.788.444-1.494.874-2.149,1.311Q8.8,8.816,8.443,9.069Zm4.23-7.4c1.186,0,2.354,1.256,3.219,3.453a28.561,28.561,0,0,0-3.219,1.4,28.614,28.614,0,0,0-3.219-1.4C10.32,2.925,11.487,1.669,12.673,1.669Zm3.5,6.9c-.653-.434-1.36-.865-2.149-1.311C14.8,6.89,15.562,6.569,16.3,6.3a19.538,19.538,0,0,1,.606,2.768C16.664,8.9,16.423,8.733,16.174,8.568Zm.982,3.991c0,.576-.023,1.169-.07,1.81-.548.415-1.1.806-1.642,1.166-.882.587-1.814,1.143-2.771,1.653-.956-.51-1.887-1.065-2.771-1.653-.544-.361-1.1-.754-1.643-1.167-.047-.641-.07-1.234-.07-1.81s.023-1.169.07-1.81c.549-.415,1.1-.807,1.643-1.166C10.784,9,11.716,8.44,12.673,7.928c.954.509,1.885,1.065,2.771,1.653.542.36,1.094.752,1.642,1.166C17.133,11.39,17.157,11.984,17.157,12.559ZM6.917,13.3c-.285-.243-.564-.488-.833-.736.267-.247.547-.492.833-.736-.006.243-.01.489-.01.736S6.911,13.051,6.917,13.3Zm.1-3.172c-.653.511-1.272,1.034-1.841,1.559C3.476,9.941,2.453,8.319,2.287,7.1a1.409,1.409,0,0,1,.28-1.178,2.673,2.673,0,0,1,2-.6,11.749,11.749,0,0,1,3.262.566A21.229,21.229,0,0,0,7.02,10.123ZM2.287,18.017c.164-1.216,1.189-2.839,2.892-4.581.568.524,1.187,1.047,1.841,1.56a21.182,21.182,0,0,0,.807,4.238c-2.581.77-4.565.732-5.26-.038A1.412,1.412,0,0,1,2.287,18.017Z" transform="translate(-0.564)" fill="#8f00f1"/>
        <circle id="타원_1340" data-name="타원 1340" cx="2.615" cy="2.615" r="2.615" transform="translate(9.494 9.944)" fill="#8f00f1"/>
      </g>
    </g>
  </g>
</svg>
