<svg xmlns="http://www.w3.org/2000/svg" width="40" height="40" viewBox="0 0 40 40">
  <g id="icon4" transform="translate(-488 -1164)">
    <circle id="타원_1339" data-name="타원 1339" cx="20" cy="20" r="20" transform="translate(488 1164)" fill="#1c1c1c"/>
    <g id="_x35_2" transform="translate(492.939 1168.941)">
      <path id="패스_87841" data-name="패스 87841" d="M45.421,25.5a.521.521,0,1,0,.523.518A.517.517,0,0,0,45.421,25.5Z" transform="translate(-20.21 -10.965)" fill="#8f00f1"/>
      <path id="패스_87842" data-name="패스 87842" d="M45.421,28.562a.521.521,0,1,0,.523.518A.517.517,0,0,0,45.421,28.562Z" transform="translate(-20.21 -12.424)" fill="#8f00f1"/>
      <path id="패스_87843" data-name="패스 87843" d="M45.421,22.433a.526.526,0,1,0,.523.529A.523.523,0,0,0,45.421,22.433Z" transform="translate(-20.21 -9.502)" fill="#8f00f1"/>
      <path id="패스_87844" data-name="패스 87844" d="M38.531,39.112a.525.525,0,0,0-.241.7.523.523,0,1,0,.241-.7Z" transform="translate(-17.035 -17.428)" fill="#8f00f1"/>
      <path id="패스_87845" data-name="패스 87845" d="M32.434,42.119a.523.523,0,0,0,.466.937.523.523,0,0,0,.236-.7A.517.517,0,0,0,32.434,42.119Z" transform="translate(-14.13 -18.859)" fill="#8f00f1"/>
      <path id="패스_87846" data-name="패스 87846" d="M35.481,40.613a.524.524,0,1,0,.7.241.527.527,0,0,0-.7-.241Z" transform="translate(-15.581 -18.143)" fill="#8f00f1"/>
      <path id="패스_87847" data-name="패스 87847" d="M16.552,40.61a.523.523,0,1,0,.235.7A.521.521,0,0,0,16.552,40.61Z" transform="translate(-6.336 -18.141)" fill="#8f00f1"/>
      <path id="패스_87848" data-name="패스 87848" d="M19.6,42.112a.525.525,0,1,0,.236.7.523.523,0,0,0-.236-.7Z" transform="translate(-7.79 -18.858)" fill="#8f00f1"/>
      <path id="패스_87849" data-name="패스 87849" d="M13.5,39.1a.525.525,0,1,0,.236.7A.523.523,0,0,0,13.5,39.1Z" transform="translate(-4.883 -17.423)" fill="#8f00f1"/>
      <path id="패스_87850" data-name="패스 87850" d="M6.625,29.6a.526.526,0,1,0-.523-.523.525.525,0,0,0,.523.523Z" transform="translate(-1.716 -12.419)" fill="#8f00f1"/>
      <path id="패스_87851" data-name="패스 87851" d="M6.625,26.544a.521.521,0,1,0-.523-.518.52.52,0,0,0,.523.518Z" transform="translate(-1.716 -10.965)" fill="#8f00f1"/>
      <path id="패스_87852" data-name="패스 87852" d="M6.625,23.484a.526.526,0,1,0-.523-.523.525.525,0,0,0,.523.523Z" transform="translate(-1.716 -9.502)" fill="#8f00f1"/>
      <path id="패스_87853" data-name="패스 87853" d="M19.6,9.928a.525.525,0,1,0-.7-.241A.524.524,0,0,0,19.6,9.928Z" transform="translate(-7.79 -3.067)" fill="#8f00f1"/>
      <path id="패스_87854" data-name="패스 87854" d="M16.552,11.43a.523.523,0,1,0-.7-.235A.521.521,0,0,0,16.552,11.43Z" transform="translate(-6.336 -3.784)" fill="#8f00f1"/>
      <path id="패스_87855" data-name="패스 87855" d="M13.5,12.938a.525.525,0,1,0-.7-.241A.524.524,0,0,0,13.5,12.938Z" transform="translate(-4.883 -4.501)" fill="#8f00f1"/>
      <path id="패스_87856" data-name="패스 87856" d="M32.434,9.922a.523.523,0,1,0-.236-.7.518.518,0,0,0,.236.7Z" transform="translate(-14.13 -3.067)" fill="#8f00f1"/>
      <path id="패스_87857" data-name="패스 87857" d="M35.481,11.428a.524.524,0,1,0-.241-.7A.525.525,0,0,0,35.481,11.428Z" transform="translate(-15.581 -3.782)" fill="#8f00f1"/>
      <path id="패스_87858" data-name="패스 87858" d="M38.531,12.93a.522.522,0,1,0-.241-.7A.521.521,0,0,0,38.531,12.93Z" transform="translate(-17.035 -4.499)" fill="#8f00f1"/>
      <path id="패스_87859" data-name="패스 87859" d="M27.619,10.765V8.593a.536.536,0,0,0-.262-.455L25.468,7.05a.52.52,0,0,0-.523,0L23.061,8.138a.525.525,0,0,0-.262.455V9.928L18.3,12.413,15.584,10.89V7.678l1.622-.937a.537.537,0,0,0,.209-.235.632.632,0,0,0,.052-.215V4.114a.525.525,0,0,0-.262-.455L15.322,2.571a.52.52,0,0,0-.523,0L12.91,3.659a.525.525,0,0,0-.262.455V6.286a.584.584,0,0,0,.052.22.567.567,0,0,0,.209.235l1.627.937V10.89l-2.726,1.523L7.316,9.933V8.593a.525.525,0,0,0-.262-.455L5.171,7.05a.52.52,0,0,0-.523,0L2.764,8.138a.525.525,0,0,0-.262.455v2.171a.525.525,0,0,0,.262.455l1.884,1.088a.759.759,0,0,0,.262.073.645.645,0,0,0,.262-.073L7.055,11.22a.482.482,0,0,0,.157-.152l4.076,2.25V16.8l-4.076,2.25a.62.62,0,0,0-.157-.152l-.937-.539a.005.005,0,0,0-.005-.005c-.005,0-.005,0-.01-.005l-.931-.539a.744.744,0,0,0-.241-.068.636.636,0,0,0-.283.068L2.764,18.9a.525.525,0,0,0-.262.455v2.171a.525.525,0,0,0,.262.455l1.884,1.088a.514.514,0,0,0,.262.068.528.528,0,0,0,.262-.068l1.884-1.088a.525.525,0,0,0,.262-.455v-1.34l4.495-2.475,2.726,1.517v3.213l-1.627.942a.5.5,0,0,0-.215.246c0,.005-.005.01-.005.016a.451.451,0,0,0-.042.188v2.177a.523.523,0,0,0,.262.45L14.8,27.545a.505.505,0,0,0,.262.073.535.535,0,0,0,.262-.073l1.884-1.088a.523.523,0,0,0,.262-.45V23.83a.543.543,0,0,0-.052-.215.507.507,0,0,0-.209-.235l-1.622-.942V19.226L18.3,17.708l4.495,2.48v1.334a.525.525,0,0,0,.262.455l1.884,1.088a.528.528,0,0,0,.262.068.5.5,0,0,0,.262-.068l1.889-1.088a.536.536,0,0,0,.262-.455V19.351a.536.536,0,0,0-.262-.455l-1.889-1.088a.541.541,0,0,0-.241-.063.678.678,0,0,0-.283.063c-1.968,1.139-1.937,1.116-1.994,1.172a.687.687,0,0,0-.058.063L18.828,16.8v-3.48l4.066-2.245a.633.633,0,0,0,.167.146l1.884,1.088a.917.917,0,0,0,.267.073.833.833,0,0,0,.256-.073l1.889-1.088a.536.536,0,0,0,.262-.455ZM14.537,18.027l-2.2-1.224V13.9l2.2,1.23Zm.523-3.809L12.889,13.01,15.061,11.8l2.166,1.209ZM17.781,16.8l-2.2,1.224v-2.9l2.2-1.23Z" fill="#8f00f1"/>
    </g>
  </g>
</svg>
