<svg xmlns="http://www.w3.org/2000/svg" width="40" height="40" viewBox="0 0 40 40">
  <g id="icon7" transform="translate(-488 -1164)">
    <circle id="타원_1339" data-name="타원 1339" cx="20" cy="20" r="20" transform="translate(488 1164)" fill="#1c1c1c"/>
    <g id="Wallet" transform="translate(495.735 1170.715)">
      <path id="패스_87875" data-name="패스 87875" d="M15.693,19.561a3.428,3.428,0,0,1,3.428-3.428h2.449V14.173a1.959,1.959,0,0,0-1.959-1.959H2.959A2.9,2.9,0,0,1,1,11.46V24.948a2.939,2.939,0,0,0,2.939,2.939H19.611a2.939,2.939,0,0,0,2.939-2.939V22.989H19.122A3.428,3.428,0,0,1,15.693,19.561Z" transform="translate(0 -4.317)" fill="#8f00f1"/>
      <path id="패스_87876" data-name="패스 87876" d="M38.877,23H35.449a2.449,2.449,0,1,0,0,4.9h3.428a.98.98,0,0,0,.98-.98V23.98A.98.98,0,0,0,38.877,23Zm-2.939,3.428a.98.98,0,1,1,.98-.98A.98.98,0,0,1,35.939,26.428Z" transform="translate(-16.327 -10.205)" fill="#8f00f1"/>
      <path id="패스_87877" data-name="패스 87877" d="M2.959,6.918H19.611A2.939,2.939,0,0,1,22.55,9.857V5.939A2.939,2.939,0,0,0,19.611,3H2.959a1.959,1.959,0,0,0,0,3.918ZM4.428,4.469H19.122a.49.49,0,1,1,0,.98H4.428a.49.49,0,0,1,0-.98Z" transform="translate(0)" fill="#8f00f1"/>
    </g>
  </g>
</svg>
