<svg xmlns="http://www.w3.org/2000/svg" width="40" height="40" viewBox="0 0 40 40">
  <g id="icon2" transform="translate(-488 -1164)">
    <circle id="타원_1339" data-name="타원 1339" cx="20" cy="20" r="20" transform="translate(488 1164)" fill="#1c1c1c"/>
    <g id="free-icon-rocket-7406703" transform="translate(498.097 1174.097)">
      <path id="패스_87835" data-name="패스 87835" d="M2.265,319.51C.481,321.295.039,325.283.021,325.452a.58.58,0,0,0,.638.638c.169-.018,4.157-.459,5.942-2.244a3.066,3.066,0,1,0-4.336-4.336Z" transform="translate(-0.017 -306.289)" fill="#8f00f1"/>
      <path id="패스_87836" data-name="패스 87836" d="M.581,86.466H3.288A1.731,1.731,0,0,1,3.4,85.061a17.107,17.107,0,0,1,3.751-4.727H3.378a.58.58,0,0,0-.506.3L.075,85.6A.582.582,0,0,0,.581,86.466Z" transform="translate(0 -77.227)" fill="#8f00f1"/>
      <path id="패스_87837" data-name="패스 87837" d="M274.555,330.94a1.731,1.731,0,0,1-1.405.111v2.707a.582.582,0,0,0,.865.506l4.972-2.8a.58.58,0,0,0,.3-.506v-3.772a17.107,17.107,0,0,1-4.727,3.751Z" transform="translate(-262.584 -314.533)" fill="#8f00f1"/>
      <path id="패스_87838" data-name="패스 87838" d="M288.368,158.533a1.284,1.284,0,1,0,1.284,1.284A1.286,1.286,0,0,0,288.368,158.533Z" transform="translate(-275.979 -152.401)" fill="#8f00f1"/>
      <path id="패스_87839" data-name="패스 87839" d="M127.357,0h-.768a15.922,15.922,0,0,0-14.037,8.384.58.58,0,0,0,.1.685l6.215,6.215a.582.582,0,0,0,.686.1,15.923,15.923,0,0,0,8.384-14.037V.58a.58.58,0,0,0-.58-.58Zm-6.836,9.861a2.445,2.445,0,1,1,2.445-2.445,2.447,2.447,0,0,1-2.445,2.445Z" transform="translate(-108.132)" fill="#8f00f1"/>
    </g>
  </g>
</svg>
