<svg xmlns="http://www.w3.org/2000/svg" width="40" height="40" viewBox="0 0 40 40">
  <g id="icon5" transform="translate(-488 -1164)">
    <circle id="타원_1339" data-name="타원 1339" cx="20" cy="20" r="20" transform="translate(488 1164)" fill="#1c1c1c"/>
    <g id="free-icon-cloud-hosting-9294354" transform="translate(492.339 1170.213)">
      <path id="패스_87878" data-name="패스 87878" d="M27.409,10.59a3.392,3.392,0,0,0-2.325-2.118,3.618,3.618,0,0,0-.913-3.654,3.572,3.572,0,0,0-3.737-.872A4.919,4.919,0,0,0,15.617.5a4.879,4.879,0,0,0-4.734,3.488,3.553,3.553,0,0,0-3.82.747,3.536,3.536,0,0,0-1,3.779,3.355,3.355,0,0,0,1,6.561H8.392V13.5a1.249,1.249,0,0,1,1.246-1.246H21.762A1.249,1.249,0,0,1,23.008,13.5v1.536h.913a3.492,3.492,0,0,0,2.74-1,3.188,3.188,0,0,0,.747-3.446Z" fill="#8f00f1"/>
      <path id="패스_87879" data-name="패스 87879" d="M29.44,42.966H24.706a1.429,1.429,0,0,0-.913-.913v-.789H29.44a.447.447,0,0,0,.415-.415V37.111a.447.447,0,0,0-.415-.415H23.793V35.367H29.44a.447.447,0,0,0,.415-.415V31.215a.447.447,0,0,0-.415-.415H17.315a.416.416,0,0,0-.415.415v3.737a.416.416,0,0,0,.415.415h5.647V36.7H17.315a.416.416,0,0,0-.415.415v3.737a.416.416,0,0,0,.415.415h5.647v.83a1.429,1.429,0,0,0-.913.913H17.315a.415.415,0,0,0,0,.83H22.09a1.347,1.347,0,0,0,1.329.955,1.439,1.439,0,0,0,1.329-.955h4.775a.392.392,0,0,0,.415-.415.5.5,0,0,0-.5-.457Zm-2.2-10.381a.447.447,0,0,1,.415-.415.416.416,0,0,1,.415.415v1a.416.416,0,0,1-.415.415.447.447,0,0,1-.415-.415Zm-1.661,0a.415.415,0,0,1,.83,0v1a.415.415,0,0,1-.83,0Zm-1.7,0a.416.416,0,0,1,.415-.415.447.447,0,0,1,.415.415v1a.447.447,0,0,1-.415.415.416.416,0,0,1-.415-.415Zm-5.024.83a.411.411,0,1,1,.581-.581A.411.411,0,0,1,18.852,33.416Zm2.118,0a.411.411,0,0,1-.581-.581.411.411,0,1,1,.581.581Zm6.27,5.107a.447.447,0,0,1,.415-.415.416.416,0,0,1,.415.415v1a.416.416,0,0,1-.415.415.447.447,0,0,1-.415-.415Zm-1.661,0a.415.415,0,0,1,.83,0v1a.415.415,0,0,1-.83,0Zm-1.7,0a.416.416,0,0,1,.415-.415.447.447,0,0,1,.415.415v1a.447.447,0,0,1-.415.415.416.416,0,0,1-.415-.415Zm-5.024.789a.411.411,0,1,1,.581-.581A.411.411,0,0,1,18.852,39.312Zm2.118,0a.411.411,0,0,1-.581-.581.411.411,0,1,1,.581.581Zm2.408,4.65a.54.54,0,1,1,.54-.54A.5.5,0,0,1,23.377,43.963Z" transform="translate(-7.719 -17.719)" fill="#8f00f1"/>
    </g>
  </g>
</svg>
