<svg xmlns="http://www.w3.org/2000/svg" width="40" height="40" viewBox="0 0 40 40">
  <g id="icon6" transform="translate(-488 -1164)">
    <circle id="타원_1339" data-name="타원 1339" cx="20" cy="20" r="20" transform="translate(488 1164)" fill="#1c1c1c"/>
    <g id="_x31_09" transform="translate(491.995 1169.849)">
      <path id="패스_87867" data-name="패스 87867" d="M8.845,20c-.011-5.5,3.91-12.215,8.636-14.944l.021-.011a7.99,7.99,0,0,1,4.157-1.189h.035l-1.4-.8C15.2.092,6.083,9.56,6.1,18.144c.01,2.51.851,4.379,2.365,5.262l1.481.843c-.009-.014-.017-.03-.027-.045A7.915,7.915,0,0,1,8.845,20Z" transform="translate(0 0)" fill="#8f00f1"/>
      <path id="패스_87868" data-name="패스 87868" d="M21.189,7.474c-4.6,2.657-8.391,9.172-8.376,14.5.014,5.127,3.553,7.336,8.177,4.666s8.385-9.184,8.369-14.513c-.015-5.255-3.687-7.245-8.17-4.653Zm.044,16.516c-3.445,1.988-6.23.3-6.241-3.562a13.139,13.139,0,0,1,5.949-10.3c3.4-1.958,6.23-.342,6.241,3.562a13.131,13.131,0,0,1-5.949,10.3Z" transform="translate(-3.453 -1.977)" fill="#8f00f1"/>
      <path id="패스_87869" data-name="패스 87869" d="M24.709,23.7l2.336.4c.015,0,.031.005.046.005a.259.259,0,0,0,.2-.1L29.646,21a.246.246,0,0,0,.005-.307L27.3,17.548a.259.259,0,0,0-.24-.1.252.252,0,0,0-.2.158l-2.336,5.75a.256.256,0,0,0,.01.22.28.28,0,0,0,.184.128Z" transform="translate(-9.464 -7.689)" fill="#8f00f1"/>
      <path id="패스_87870" data-name="패스 87870" d="M29.568,27.3a.253.253,0,0,0-.332.051l-2.5,3-2.458-.107a.259.259,0,0,0-.184.45L26.8,33.081a.259.259,0,0,0,.169.066.158.158,0,0,0,.051-.005A.277.277,0,0,0,27.206,33l2.453-5.377a.25.25,0,0,0-.092-.322Z" transform="translate(-9.211 -12.74)" fill="#8f00f1"/>
    </g>
  </g>
</svg>
