<svg xmlns="http://www.w3.org/2000/svg" width="40" height="40" viewBox="0 0 40 40">
  <g id="icon8" transform="translate(-488 -1164)">
    <circle id="타원_1339" data-name="타원 1339" cx="20" cy="20" r="20" transform="translate(488 1164)" fill="#1c1c1c"/>
    <g id="_24_Pie_Chart" data-name="24 Pie Chart" transform="translate(493.991 1169.318)">
      <path id="패스_87871" data-name="패스 87871" d="M14.843,12.227A5.5,5.5,0,0,1,18.184,10.8V5.1a11.2,11.2,0,0,0-7.3,3.028Z" transform="translate(-5.275 -1.234)" fill="#8f00f1"/>
      <path id="패스_87872" data-name="패스 87872" d="M30.963,9.565a5.637,5.637,0,0,1,3.832,9.226l4.837,4.9c7.705-8,2.179-20.4-8.669-20.664Z" transform="translate(-17.246)" fill="#8f00f1"/>
      <path id="패스_87873" data-name="패스 87873" d="M7.822,22.668a5.682,5.682,0,0,1,1.192-4.529L5.046,14.028A11.343,11.343,0,0,0,2.6,25.247Z" transform="translate(0 -6.558)" fill="#8f00f1"/>
      <path id="패스_87874" data-name="패스 87874" d="M18.229,39.861A5.616,5.616,0,0,1,9.28,37.416L4.148,39.953a11.427,11.427,0,0,0,18.09,3.973Z" transform="translate(-1.256 -20.505)" fill="#8f00f1"/>
    </g>
  </g>
</svg>
