<svg xmlns="http://www.w3.org/2000/svg" width="40" height="40" viewBox="0 0 40 40">
  <g id="icon1" transform="translate(-488 -1164)">
    <circle id="타원_1339" data-name="타원 1339" cx="20" cy="20" r="20" transform="translate(488 1164)" fill="#1c1c1c"/>
    <g id="free-icon-blockchain-7836729" transform="translate(491.627 1168.496)">
      <path id="패스_87860" data-name="패스 87860" d="M26.959,11.987a2.536,2.536,0,0,1-1.512-4.075L19.089,4.24a1.809,1.809,0,0,0-1.791,0L10.976,7.9A2.537,2.537,0,0,1,9.431,12a2.3,2.3,0,0,1-.821,0v7.3a1.792,1.792,0,0,0,.9,1.553l6.3,3.644a2.53,2.53,0,0,1,4.777,0l6.3-3.644a1.8,1.8,0,0,0,.9-1.553V12a2.145,2.145,0,0,1-.822-.012Zm-8.425,9.279a.468.468,0,0,1-.534.062l-4.58-2.855a.41.41,0,0,1-.193-.349V12.763a.407.407,0,0,1,.2-.353l4.6-2.736a.4.4,0,0,1,.419,0l4.564,2.736a.419.419,0,0,1,.2.353V18.1a.4.4,0,0,1-.193.349Z" transform="translate(-1.844)" fill="#8f00f1"/>
      <path id="패스_87861" data-name="패스 87861" d="M29.5,51.71a1.7,1.7,0,1,0,1.7,1.7,1.7,1.7,0,0,0-1.7-1.7Z" transform="translate(-13.149 -28.111)" fill="#8f00f1"/>
      <path id="패스_87862" data-name="패스 87862" d="M8.889,14.955a1.7,1.7,0,1,0-1.7,1.7,1.7,1.7,0,0,0,1.7-1.7Z" transform="translate(0 -5.449)" fill="#8f00f1"/>
      <path id="패스_87863" data-name="패스 87863" d="M51.925,13.25a1.7,1.7,0,1,0,1.7,1.7,1.7,1.7,0,0,0-1.7-1.7Z" transform="translate(-26.362 -5.449)" fill="#8f00f1"/>
      <path id="패스_87864" data-name="패스 87864" d="M26.6,19.84,22.8,22.1l3.8,2.272L30.362,22.1Z" transform="translate(-10.206 -9.332)" fill="#8f00f1"/>
      <path id="패스_87865" data-name="패스 87865" d="M21.85,31.508l3.779,2.354V29.355L21.85,27.1Z" transform="translate(-9.646 -13.61)" fill="#8f00f1"/>
      <path id="패스_87866" data-name="패스 87866" d="M33.05,33.838l3.738-2.345V27.11L33.05,29.361Z" transform="translate(-16.245 -13.616)" fill="#8f00f1"/>
    </g>
  </g>
</svg>
