<svg id="logo" xmlns="http://www.w3.org/2000/svg" width="31.702" height="28.654" viewBox="0 0 31.702 28.654">
  <path id="패스_33195" data-name="패스 33195" d="M1859.245,1553.395h-7.913v28.654h8.163c8.726,0,13.731-5.262,13.731-14.437S1868.262,1553.395,1859.245,1553.395Zm-1.875,5.115h1.553c5.47,0,8.129,2.977,8.129,9.1,0,6.186-2.735,9.322-8.129,9.322h-1.553Z" transform="translate(-1851.333 -1553.395)" fill="#18171d"/>
  <g id="그룹_55969" data-name="그룹 55969" transform="translate(26.326 8.35)">
    <path id="패스_17072" data-name="패스 17072" d="M937.013,370.21a2.562,2.562,0,1,1,2.56,2.682A2.605,2.605,0,0,1,937,370.254V370.2Z" transform="translate(-937 -367.756)" fill="#18171d"/>
    <path id="패스_33196" data-name="패스 33196" d="M961.014,378.922v0a2.518,2.518,0,0,0-.029-.524,2.569,2.569,0,0,0-5.1.294v.045a2.606,2.606,0,0,0,2.568,2.638c.036,0,.069-.009.1-.01a4.368,4.368,0,0,1-2.431,2.135l.64,1.568a6.48,6.48,0,0,0,4.252-6.088Z" transform="translate(-955.641 -366.254)" fill="#18171d"/>
  </g>
</svg>
