<svg xmlns="http://www.w3.org/2000/svg" xmlns:xlink="http://www.w3.org/1999/xlink"  viewBox="0 0 85.094 23.859">
  <defs>
    <linearGradient id="linear-gradient" x1="0.5" y1="-0.384" x2="0.5" y2="1" gradientUnits="objectBoundingBox">
      <stop offset="0" stop-color="#006e36"/>
      <stop offset="1" stop-color="#11ad7c"/>
    </linearGradient>
  </defs>
  <g id="logo" transform="translate(-1535.447 -4622.646)">
    <g id="그룹_58087" data-name="그룹 58087" transform="translate(1571.671 4622.646)">
      <g id="그룹_58086" data-name="그룹 58086" transform="translate(0 0)">
        <path id="패스_35158" data-name="패스 35158" d="M7.618,7.915H3.544v8.051H19.771v-3.2H7.618Z" transform="translate(2.072 7.879)" fill="#333"/>
        <path id="패스_35159" data-name="패스 35159" d="M8.6.068V17.579h4.074V10.333h2.943v-3.3H12.673V.068Z" transform="translate(7.621 -0.068)" fill="#333"/>
        <path id="패스_35160" data-name="패스 35160" d="M8.591,9.386a8.58,8.58,0,0,0,5.228,4.485l2.115-3.325a7.124,7.124,0,0,1-5.251-7.334V.247H6.477V3.212a7.56,7.56,0,0,1-5.61,7.73L2.3,13.09l.785,1.175a8.949,8.949,0,0,0,5.507-4.88" transform="translate(-0.867 0.369)" fill="#333"/>
        <path id="패스_35161" data-name="패스 35161" d="M14.838,10.81H27.643v5.258h4.078V7.615H14.838Z" transform="translate(14.471 7.791)" fill="#333"/>
        <path id="패스_35162" data-name="패스 35162" d="M28.98,9.787c-.122-.086-.241-.174-.352-.266s-.233-.208-.342-.315-.2-.2-.29-.3c-.109-.128-.21-.26-.306-.4-.067-.092-.134-.185-.2-.281a5.647,5.647,0,0,1-.3-.543c-.034-.065-.067-.128-.1-.193a6.725,6.725,0,0,1-.289-.768l-.01-.027a11.062,11.062,0,0,1-.432-2.826h2.266V.672H21.665V3.867h.8a9.623,9.623,0,0,1-1.116,4.592,9.6,9.6,0,0,1-1.114-4.592h.8V.672H14.059V3.867h2.264a11.031,11.031,0,0,1-.432,2.824l-.01.034a7.234,7.234,0,0,1-.287.764c-.029.065-.065.128-.1.193a5.666,5.666,0,0,1-.3.543c-.059.1-.128.189-.193.281-.1.136-.2.269-.308.4-.09.1-.189.206-.29.3s-.22.214-.342.313-.231.183-.352.269a5.436,5.436,0,0,1-.61.394l.388.545v.008l.556.772,1.118,1.569.008-.006,0,.006c.187-.1.342-.231.514-.346a6.772,6.772,0,0,0,2.593-3.3,7.61,7.61,0,0,0,2.442,3.432,6.844,6.844,0,0,0,.615.466l.006,0,.006,0a6.3,6.3,0,0,0,.615-.466,7.6,7.6,0,0,0,2.442-3.432A6.772,6.772,0,0,0,27,12.73c.172.115.327.243.516.346l0-.006.008.006,1.118-1.569.556-.772v-.008l.39-.545a5.573,5.573,0,0,1-.613-.394" transform="translate(12.565 0.169)" fill="#333"/>
        <path id="패스_35163" data-name="패스 35163" d="M25.04,5.39V.643H20.963V14.07H25.04V8.5h2.635V5.39Z" transform="translate(21.195 -0.625)" fill="#333"/>
      </g>
    </g>
    <path id="패스_35164" data-name="패스 35164" d="M8.955,0,0,20.494H4.817L11.032,6.268l7.592,14.226H23L18.8,12.616l2.708-5.435L29.152,20.5h4.412L22.551,1.1H19.479L16.195,7.741,12.064,0Z" transform="translate(1535.447 4624.539)" fill="url(#linear-gradient)"/>
  </g>
</svg>
