<svg id="insta-icon" xmlns="http://www.w3.org/2000/svg"  viewBox="0 0 22 22">
  <path id="패스_16632" data-name="패스 16632" d="M2349.516,1726.325h-8.443a6.779,6.779,0,0,0-6.779,6.78v8.443a6.778,6.778,0,0,0,6.779,6.778h8.443a6.777,6.777,0,0,0,6.778-6.778V1733.1A6.778,6.778,0,0,0,2349.516,1726.325Zm4.667,14.412a5.477,5.477,0,0,1-5.477,5.477h-6.823a5.476,5.476,0,0,1-5.478-5.477v-6.823a5.478,5.478,0,0,1,5.478-5.477h6.823a5.478,5.478,0,0,1,5.477,5.477Z" transform="translate(-2334.294 -1726.325)" fill="current"/>
  <path id="패스_16633" data-name="패스 16633" d="M2852.9,2215.279a5.794,5.794,0,1,0,5.795,5.794A5.794,5.794,0,0,0,2852.9,2215.279Zm0,9.281a3.486,3.486,0,1,1,3.486-3.486A3.486,3.486,0,0,1,2852.9,2224.56Z" transform="translate(-2841.606 -2210.035)" fill="current"/>
  <path id="패스_16634" data-name="패스 16634" d="M3755.985,2070.836a1.473,1.473,0,1,1-1.474-1.475A1.474,1.474,0,0,1,3755.985,2070.836Z" transform="translate(-3737.823 -2065.682)" fill="current"/>
</svg>
