<svg xmlns="http://www.w3.org/2000/svg" width="46" height="46" viewBox="0 0 46 46">
  <g id="sec2-icon1" transform="translate(-0.001 0)">
    <g id="그룹_7" data-name="그룹 7" transform="translate(0.001 0)">
      <path id="패스_16635" data-name="패스 16635" d="M22.1,20.339a1.375,1.375,0,0,0,1.834,0l9.482-8.717a6.448,6.448,0,0,0,0-9.627,7.806,7.806,0,0,0-10.4-.019,7.8,7.8,0,0,0-10.4.019,6.448,6.448,0,0,0,0,9.627Z" transform="translate(-0.02 0)" fill="#d7d7d7"/>
      <path id="패스_16636" data-name="패스 16636" d="M23.937,23.79a1.376,1.376,0,0,0-1.834,0c-2.515,2.31-9.343,8.589-9.482,8.716a6.449,6.449,0,0,0,0,9.628,7.806,7.806,0,0,0,10.4.019,7.8,7.8,0,0,0,10.4-.019,6.449,6.449,0,0,0,0-9.628C33.279,32.38,26.452,26.1,23.937,23.79Z" transform="translate(-0.02 1.869)" fill="#d7d7d7"/>
      <path id="패스_16637" data-name="패스 16637" d="M42.135,12.62a6.45,6.45,0,0,0-9.628,0c-.131.139-6.408,6.967-8.717,9.48a1.376,1.376,0,0,0,0,1.834c2.31,2.515,8.589,9.344,8.716,9.483a6.451,6.451,0,0,0,9.628,0,7.807,7.807,0,0,0,.018-10.4A7.8,7.8,0,0,0,42.135,12.62Z" transform="translate(1.872 -0.019)" fill="#d7d7d7"/>
      <path id="패스_16638" data-name="패스 16638" d="M20.34,23.935a1.377,1.377,0,0,0,0-1.834l-8.717-9.481A6.448,6.448,0,0,0,2,12.62a7.807,7.807,0,0,0-.02,10.4A7.8,7.8,0,0,0,2,33.417a6.449,6.449,0,0,0,9.627,0C11.751,33.277,18.029,26.449,20.34,23.935Z" transform="translate(-0.001 -0.019)" fill="#d7d7d7"/>
    </g>
  </g>
</svg>
