<svg xmlns="http://www.w3.org/2000/svg" width="46" height="46" viewBox="0 0 46 46">
  <g id="sec2-icon3" transform="translate(-536 -1160)">
    <rect id="사각형_8843" data-name="사각형 8843" width="46" height="46" transform="translate(536 1160)" fill="none"/>
    <g id="Line" transform="translate(533.823 1157.81)">
      <path id="패스_16641" data-name="패스 16641" d="M4.841,45.412c-1.209-1.2-.526-5.2,3.512-11.568a18.929,18.929,0,0,0,8.024,8.108,77.822,77.822,0,0,0,10.8-8.413,5.283,5.283,0,0,1,7.288-7.456,77.064,77.064,0,0,0,7.488-9.7,18.751,18.751,0,0,0-8.035-8.035c6.31-4.038,10.348-4.722,11.568-3.512,1.378,1.378.21,5.689-3.512,11.568a15.88,15.88,0,0,1,1.052,2.282c4.417-6.573,6.688-12.62,3.986-15.322C43.678.118,36.106,4.3,31.584,7.333A18.929,18.929,0,0,0,7.333,31.583C4.3,36.105.108,43.667,3.347,46.906a4.343,4.343,0,0,0,3.207,1.157c3.155,0,7.5-2.1,12.1-5.143a18.592,18.592,0,0,1-2.282-1.052C10.6,45.56,6.2,46.811,4.841,45.412Z" transform="translate(0)" fill="#d7d7d7"/>
      <path id="패스_16642" data-name="패스 16642" d="M35.1,26.809a5.153,5.153,0,0,1,.789,2.766,5.251,5.251,0,0,1-7.95,4.512A85.96,85.96,0,0,1,17.85,42.111,18.929,18.929,0,0,0,42.111,17.86,81.522,81.522,0,0,1,35.1,26.809Z" transform="translate(0.809 0.809)" fill="#d7d7d7"/>
    </g>
  </g>
</svg>
