<svg xmlns="http://www.w3.org/2000/svg" width="46" height="46" viewBox="0 0 46 46">
  <g id="sec2-icon4" transform="translate(-2.053 -2.55)">
    <path id="패스_16640" data-name="패스 16640" d="M46.455,25.328a5.645,5.645,0,0,0,1.336-5.641,5.362,5.362,0,0,0-4.286-3.74l-8.453-1.282a2.016,2.016,0,0,1-1.466-1.094L29.8,5.626a5.224,5.224,0,0,0-9.524,0l-3.79,7.946a2.017,2.017,0,0,1-1.516,1.145L6.514,16a5.367,5.367,0,0,0-4.205,3.744,5.647,5.647,0,0,0,1.305,5.586l6.113,6.186a2.139,2.139,0,0,1,.478,1.863L8.837,42.109A5.6,5.6,0,0,0,10.942,47.5a5.148,5.148,0,0,0,5.59.423L24.1,43.8a1.947,1.947,0,0,1,1.878,0l7.563,4.118a5.148,5.148,0,0,0,5.59-.423,5.6,5.6,0,0,0,2.105-5.387l-1.368-8.732a2.133,2.133,0,0,1,.577-1.846Z" fill="#d7d7d7"/>
  </g>
</svg>
