<svg xmlns="http://www.w3.org/2000/svg" width="46.004" height="46" viewBox="0 0 46.004 46">
  <g id="sec2-icon2" transform="translate(0 -0.015)">
    <g id="그룹_13" data-name="그룹 13" transform="translate(0 0.015)">
      <path id="패스_16639" data-name="패스 16639" d="M46,25.044a11.887,11.887,0,0,0-11.709-11.7,11.74,11.74,0,0,0,.117-1.635A11.859,11.859,0,0,0,22.421.015a11.858,11.858,0,0,0-11.987,11.7A11.565,11.565,0,0,0,10.663,14,11.907,11.907,0,0,0,0,25.623a11.861,11.861,0,0,0,11.991,11.7,12.18,12.18,0,0,0,9.3-4.31c-.947,4.257-3.769,9.56-11.7,11.652l-.33.088.168,1.264H36.775l.148-1.275-.332-.077A16.783,16.783,0,0,1,25.2,32.976a12.28,12.28,0,0,0,8.815,3.764A11.858,11.858,0,0,0,46,25.044Z" transform="translate(0 -0.015)" fill="#d7d7d7"/>
    </g>
  </g>
</svg>
