<svg xmlns="http://www.w3.org/2000/svg"  viewBox="0 0 22 22">
  <g id="twitter-icon" transform="translate(-182 -620)">
    <rect id="사각형_8661" data-name="사각형 8661" width="22" height="22" transform="translate(182 620)" fill="none"/>
    <path id="Icon_awesome-twitter" data-name="Icon awesome-twitter" d="M19.739,8.614c.014.23.014.459.014.689,0,7.005-4.537,15.077-12.829,15.077A11.407,11.407,0,0,1,0,22a7.951,7.951,0,0,0,1.089.066,8.217,8.217,0,0,0,5.6-2.264,4.676,4.676,0,0,1-4.216-3.675,4.859,4.859,0,0,0,.852.082,4.1,4.1,0,0,0,1.187-.18,5.161,5.161,0,0,1-3.616-5.2v-.066a4.044,4.044,0,0,0,2.038.673A5.59,5.59,0,0,1,.921,7.023a5.979,5.979,0,0,1,.614-2.674,12.306,12.306,0,0,0,9.3,5.545,6.992,6.992,0,0,1-.112-1.214c0-2.92,2.01-5.3,4.509-5.3a4.218,4.218,0,0,1,3.294,1.673,8.122,8.122,0,0,0,2.862-1.28A5.219,5.219,0,0,1,19.4,6.695a8,8,0,0,0,2.6-.82,10.788,10.788,0,0,1-2.261,2.74Z" transform="translate(182 617.119)" fill="current"/>
  </g>
</svg>
