<svg xmlns="http://www.w3.org/2000/svg" viewBox="0 0 22 22">
  <g id="youtube-icon" transform="translate(-314 -66)">
    <rect id="사각형_8839" data-name="사각형 8839" width="22" height="22" transform="translate(314 66)" fill="none"/>
    <path id="youtube" d="M21.548,6.908a2.756,2.756,0,0,1-1.939,1.939C17.887,9.318,11,9.318,11,9.318s-6.886,0-8.608-.453A2.812,2.812,0,0,1,.454,6.908,29.029,29.029,0,0,1,0,1.618a28.922,28.922,0,0,1,.453-5.29A2.756,2.756,0,0,1,2.393-5.611C4.132-6.082,11-6.082,11-6.082s6.886,0,8.608.453A2.756,2.756,0,0,1,21.548-3.69,29.038,29.038,0,0,1,22,1.6a27.556,27.556,0,0,1-.453,5.308ZM8.808-1.679V4.916l5.726-3.3Zm0,0" transform="translate(313.999 75.382)" fill="current"/>
  </g>
</svg>
